{"title":"SuperVIXENS.1975.HQTV.72Op.x264.AC3.[FrOnkY]","uid":10504916,"size":4159609166,"categoryP":"video","categoryS":"hd___movies","magnet":"?xt=urn:btih:2a2af069616c11a275fab3e7ca6b12a5f6820c85&amp;dn=SuperVIXENS.1975.HQTV.72Op.x264.AC3.%5BFrOnkY%5D&amp;tr=udp%3A%2F%2Ftracker.openbittorrent.com%3A80&amp;tr=udp%3A%2F%2Fopen.demonii.com%3A1337&amp;tr=udp%3A%2F%2Ftracker.coppersurfer.tk%3A6969&amp;tr=udp%3A%2F%2Fexodus.desync.com%3A6969","seeders":2,"leechers":1,"uploader":"HDmEntEs","files":-1,"time":1404748108,"description":"SuperMeyer!\nRussVixenss!!\n\n\nSuperVIXENS.1975.HQTV.72Op.x264.AC3.[FrOnkY].mkv\n\nFormat                                   : Matroska\nFormat version                           : Version 4 / Version 2\nFile size                                : 3.87 GiB\nDuration                                 : 1h 45mn\nOverall bit rate                         : 5 259 Kbps\nWriting application                      : mkvmerge v6.6.0 ('The Edge Of The In Between') built on Dec  1 2013 17:55:00\nWriting library                          : libebml v1.3.0 + libmatroska v1.4.1\nAttachment                               : Yes / Yes / Yes / Yes / Yes / Yes / Yes / Yes / Yes\n\nVideo\nID                                       : 1\nFormat                                   : AVC\nFormat/Info                              : Advanced Video Codec\nFormat profile                           : &lt;a class=&quot;__cf_email__&quot; href=&quot;/cdn-cgi/l/email-protection&quot; data-cfemail=&quot;a2eacbc5cae2ee968c93&quot;&gt;[email&amp;#160;protected]&lt;/a&gt;&lt;script cf-hash='f9e31' type=&quot;text/javascript&quot;&gt;\n/* &lt;![CDATA[ */!function(){try{var t=&quot;currentScript&quot;in document?document.currentScript:function(){for(var t=document.getElementsByTagName(&quot;script&quot;),e=t.length;e--;)if(t[e].getAttribute(&quot;cf-hash&quot;))return t[e]}();if(t&amp;&amp;t.previousSibling){var e,r,n,i,c=t.previousSibling,a=c.getAttribute(&quot;data-cfemail&quot;);if(a){for(e=&quot;&quot;,r=parseInt(a.substr(0,2),16),n=2;a.length-n;n+=2)i=parseInt(a.substr(n,2),16)^r,e+=String.fromCharCode(i);e=document.createTextNode(e),c.parentNode.replaceChild(e,c)}}}catch(u){}}();/* ]]&gt; */&lt;/script&gt;\nFormat settings, CABAC                   : Yes\nFormat settings, ReFrames                : 12 frames\nCodec ID                                 : V_MPEG4/ISO/AVC\nDuration                                 : 1h 45mn\nBit rate                                 : 4 869 Kbps\nWidth                                    : 956 pixels\nHeight                                   : 720 pixels\nDisplay aspect ratio                     : 4:3\nFrame rate mode                          : Constant\nFrame rate                               : 23.976 fps\nColor space                              : YUV\nChroma subsampling                       : 4:2:0\nBit depth                                : 8 bits\nScan type                                : Progressive\nBits/(Pixel*Frame)                       : 0.295\nStream size                              : 3.51 GiB (91%)\nWriting library                          : x264 core 133 r2334 a3ac64b\nLanguage                                 : English\nDefault                                  : Yes\nForced                                   : No\n\nAudio #1\nID                                       : 2\nFormat                                   : AC-3\nFormat/Info                              : Audio Coding 3\nMode extension                           : CM (complete main)\nFormat settings, Endianness              : Big\nCodec ID                                 : A_AC3\nDuration                                 : 1h 45mn\nBit rate mode                            : Constant\nBit rate                                 : 192 Kbps\nChannel(s)                               : 2 channels\nChannel positions                        : Front: L R\nSampling rate                            : 48.0 KHz\nBit depth                                : 16 bits\nStream size                              : 145 MiB (4%)\nLanguage                                 : Spanish\nDefault                                  : Yes\nForced                                   : No\n\nAudio #2\nID                                       : 3\nFormat                                   : AC-3\nFormat/Info                              : Audio Coding 3\nMode extension                           : CM (complete main)\nFormat settings, Endianness              : Big\nCodec ID                                 : A_AC3\nDuration                                 : 1h 45mn\nBit rate mode                            : Constant\nBit rate                                 : 192 Kbps\nChannel(s)                               : 2 channels\nChannel positions                        : Front: L R\nSampling rate                            : 48.0 KHz\nBit depth                                : 16 bits\nStream size                              : 145 MiB (4%)\nLanguage                                 : English\nDefault                                  : No\nForced                                   : No\n\nText #1\nID                                       : 4\nFormat                                   : UTF-8\nCodec ID                                 : S_TEXT/UTF8\nCodec ID/Info                            : UTF-8 Plain Text\nLanguage                                 : Spanish\nDefault                                  : No\nForced                                   : No\n\nText #2\nID                                       : 5\nFormat                                   : UTF-8\nCodec ID                                 : S_TEXT/UTF8\nCodec ID/Info                            : UTF-8 Plain Text\nLanguage                                 : French\nDefault                                  : No\nForced                                   : No\n\nMenu\n00:00:00.000                             : en:Chapter 01\n00:09:01.720                             : en:Chapter 02\n00:17:01.720                             : en:Chapter 03\n00:25:00.520                             : en:Chapter 04\n00:35:58.720                             : en:Chapter 05\n00:43:56.080                             : en:Chapter 06\n00:55:14.200                             : en:Chapter 07\n01:07:07.360                             : en:Chapter 08\n01:14:55.480                             : en:Chapter 09\n01:23:35.080                             : en:Chapter 10\n01:30:39.400                             : en:Chapter 11\n01:44:41.920                             : en:Chapter 12\n\n\nSCREENS\n &lt;a href=&quot;\nhttps://box.jisko.net/i/d04367b0.png&quot; rel=&quot;nofollow&quot; target=&quot;_NEW&quot;&gt;\nhttps://box.jisko.net/i/d04367b0.png&lt;/a&gt;\n &lt;a href=&quot;\nhttps://box.jisko.net/i/f8fe5219.png&quot; rel=&quot;nofollow&quot; target=&quot;_NEW&quot;&gt;\nhttps://box.jisko.net/i/f8fe5219.png&lt;/a&gt;\n &lt;a href=&quot;\nhttps://box.jisko.net/i/1719eef2.png&quot; rel=&quot;nofollow&quot; target=&quot;_NEW&quot;&gt;\nhttps://box.jisko.net/i/1719eef2.png&lt;/a&gt;\n &lt;a href=&quot;\nhttps://box.jisko.net/i/344e2bee.png&quot; rel=&quot;nofollow&quot; target=&quot;_NEW&quot;&gt;\nhttps://box.jisko.net/i/344e2bee.png&lt;/a&gt;\n &lt;a href=&quot;\nhttps://box.jisko.net/i/a1291858.png&quot; rel=&quot;nofollow&quot; target=&quot;_NEW&quot;&gt;\nhttps://box.jisko.net/i/a1291858.png&lt;/a&gt;\n &lt;a href=&quot;\nhttps://box.jisko.net/i/53ff2691.png&quot; rel=&quot;nofollow&quot; target=&quot;_NEW&quot;&gt;\nhttps://box.jisko.net/i/53ff2691.png&lt;/a&gt;\n &lt;a href=&quot;\nhttps://box.jisko.net/i/338771a8.png&quot; rel=&quot;nofollow&quot; target=&quot;_NEW&quot;&gt;\nhttps://box.jisko.net/i/338771a8.png&lt;/a&gt;\n &lt;a href=&quot;\nhttps://box.jisko.net/i/54a73382.png&quot; rel=&quot;nofollow&quot; target=&quot;_NEW&quot;&gt;\nhttps://box.jisko.net/i/54a73382.png&lt;/a&gt;\n &lt;a href=&quot;\nhttps://box.jisko.net/i/aeb41090.png&quot; rel=&quot;nofollow&quot; target=&quot;_NEW&quot;&gt;\nhttps://box.jisko.net/i/aeb41090.png&lt;/a&gt;\n &lt;a href=&quot;\nhttps://box.jisko.net/i/25f059b8.png&quot; rel=&quot;nofollow&quot; target=&quot;_NEW&quot;&gt;\nhttps://box.jisko.net/i/25f059b8.png&lt;/a&gt;","torrent":{"xt":"urn:btih:2a2af069616c11a275fab3e7ca6b12a5f6820c85","amp;dn":"SuperVIXENS.1975.HQTV.72Op.x264.AC3.%5BFrOnkY%5D","amp;tr":["udp%3A%2F%2Ftracker.openbittorrent.com%3A80","udp%3A%2F%2Fopen.demonii.com%3A1337","udp%3A%2F%2Ftracker.coppersurfer.tk%3A6969","udp%3A%2F%2Fexodus.desync.com%3A6969"],"infoHash":"2a2af069616c11a275fab3e7ca6b12a5f6820c85","infoHashBuffer":{"type":"Buffer","data":[42,42,240,105,97,108,17,162,117,250,179,231,202,107,18,165,246,130,12,133]},"announce":[],"urlList":[]}}